# xmcd
#
# Track frame offsets: 
#        150
#        17350
#        32125
#        48575
#        63362
#        80925
#        99337
#        116925
#        133900
#
# Disc length: 2131 seconds
#
# Revision: 2
# Processed by: cddbd v1.5.2PL0 Copyright (c) Steve Scherf et al.
# Submitted via: ExactAudioCopy v0.95b4
#
DISCID=7b085109
DTITLE=MARLENE WITH SEAWIND - Summer Night 35DH 16
DYEAR=1982
DGENRE=Jazz
TTITLE0=01- Summer Nights
TTITLE1=02- I Could Dance Tonight
TTITLE2=03- Semi-Forgotten Movie
TTITLE3=04- Try
TTITLE4=05- Good Enough For You
TTITLE5=06- A Love Too Strong
TTITLE6=07- Just Say I Love You
TTITLE7=08- Let Yourself Go
TTITLE8=09- My Song
EXTD=YEAR: 1982
EXTT0=
EXTT1=
EXTT2=
EXTT3=
EXTT4=
EXTT5=
EXTT6=
EXTT7=
EXTT8=
PLAYORDER=
